PathFileType	4	(X/Y/Z)	 s07c0102.trc
DataRate	CameraRate	NumFrames	NumMarkers	Units	OrigDataRate	OrigDataStartFrame	OrigNumFrames
200	200	4	48	mm	200	251	2000
Frame#	Time	racr			lacr			c7			jug			rlel			rdr			llel			ldr			s2			lic			ric			lasi			rasi			rpsi			lpsi			rgt			lgt			rth1			rth2			rth3			rth4			rlfc			rmfc			rsh1			rsh2			rsh3			rsh4			rlmal			rcal			rtoe			rmt5			lth1			lth2			lth4			lth3			llfc			lmfc			lsh1			lsh2			lsh3			lsh4			llmal			lcal			ltoe			lmt5			SBIKE			LBIKE			RBIKE			
		X1	Y1	Z1	X2	Y2	Z2	X3	Y3	Z3	X4	Y4	Z4	X5	Y5	Z5	X6	Y6	Z6	X7	Y7	Z7	X8	Y8	Z8	X9	Y9	Z9	X10	Y10	Z10	X11	Y11	Z11	X12	Y12	Z12	X13	Y13	Z13	X14	Y14	Z14	X15	Y15	Z15	X16	Y16	Z16	X17	Y17	Z17	X18	Y18	Z18	X19	Y19	Z19	X20	Y20	Z20	X21	Y21	Z21	X22	Y22	Z22	X23	Y23	Z23	X24	Y24	Z24	X25	Y25	Z25	X26	Y26	Z26	X27	Y27	Z27	X28	Y28	Z28	X29	Y29	Z29	X30	Y30	Z30	X31	Y31	Z31	X32	Y32	Z32	X33	Y33	Z33	X34	Y34	Z34	X35	Y35	Z35	X36	Y36	Z36	X37	Y37	Z37	X38	Y38	Z38	X39	Y39	Z39	X40	Y40	Z40	X41	Y41	Z41	X42	Y42	Z42	X43	Y43	Z43	X44	Y44	Z44	X45	Y45	Z45	X46	Y46	Z46	X47	Y47	Z47	X48	Y48	Z48	
251	1.2550	465.787778	1385.111606	-63.414998	465.440163	1373.403092	-361.450058	445.466173	1430.543373	-213.386891	394.935260	1293.932332	-211.629352	474.956398	1054.863468	50.532485	717.421857	916.529145	-47.743971	480.068560	1062.179740	-497.059679	724.367845	917.650045	-399.951023	-128.590315	1214.956359	-241.670643	43.127217	1250.867414	-374.001263	35.269030	1240.703027	-82.884834	68.712298	1168.886976	-349.133725	43.546058	1184.178643	-100.792792	-102.141563	1251.345084	-188.289301	-83.316426	1260.108236	-295.262185	-31.776395	1130.411937	-38.760148	-23.574132	1100.478589	-408.803335	107.717591	1074.807179	-39.185909	194.221516	1064.369065	-50.128552	265.021700	1016.496244	-47.779592	204.613799	1094.923083	-68.916578	388.129243	941.014619	-80.812664	383.975896	927.175427	-187.469153	335.340491	808.013197	-58.997280	319.613884	721.557770	-79.348869	267.890765	652.551056	-74.940823	336.022396	719.749478	-115.086904	206.049766	530.749485	-77.451063	137.163170	495.219918	-106.372163	422.863082	448.729161	-120.536943	342.985654	422.518959	-49.765454	32.064035	990.743656	-416.405125	98.885068	933.075129	-417.765273	128.583773	952.828442	-408.701886	127.820907	849.006289	-413.347966	211.481810	689.746938	-380.669501	196.647871	673.486688	-283.886686	123.205403	568.337757	-405.303669	90.883166	490.521631	-385.862709	23.882408	431.667543	-396.180225	92.901303	492.176066	-343.914491	-61.172937	325.024985	-396.520180	-138.130282	293.179064	-364.820841	145.233233	235.790106	-353.316478	64.367133	222.406300	-420.060027	-259.811338	973.143145	-233.317797	-75.735225	83.433367	-438.431972	-82.686064	79.312756	-41.062415	
252	1.2600	465.798460	1385.163488	-63.396095	465.463162	1373.421630	-361.439510	445.464717	1430.576084	-213.360849	394.956693	1293.905138	-211.651650	474.994297	1054.903604	50.507319	717.439715	916.530744	-47.740236	480.074336	1062.193207	-497.060237	724.372072	917.666207	-399.929080	-128.554267	1214.950090	-241.658048	43.138943	1250.850204	-373.965549	35.283517	1240.674751	-82.905295	68.738532	1168.866069	-349.128503	43.553891	1184.136930	-100.775383	-102.118171	1251.328960	-188.284334	-83.305761	1260.079538	-295.263017	-31.773328	1130.394301	-38.756175	-23.539742	1100.447123	-408.789006	107.728320	1074.788423	-39.189260	194.233293	1064.339946	-50.126271	265.022007	1016.477009	-47.775847	204.621372	1094.908183	-68.932790	388.148714	941.019938	-80.817823	383.996003	927.188812	-187.481185	335.362470	808.000626	-59.023718	319.613626	721.559047	-79.348538	267.909585	652.542745	-74.948164	336.030125	719.739809	-115.122268	206.090111	530.734189	-77.463797	137.193201	495.213825	-106.362511	422.891775	448.699710	-120.546711	342.975122	422.480063	-49.763066	32.073457	990.713384	-416.397531	98.899175	933.053431	-417.757932	128.582350	952.816152	-408.700220	127.834714	848.979131	-413.340937	211.521979	689.732069	-380.655633	196.680227	673.480586	-283.896858	123.239572	568.328810	-405.312250	90.932027	490.492354	-385.812700	23.887751	431.671125	-396.184948	92.927324	492.180668	-343.892948	-61.187086	325.034976	-396.502876	-138.149698	293.226843	-364.786836	145.213790	235.811028	-353.314410	64.357756	222.415754	-420.055132	-259.803088	973.142073	-233.312563	-75.739215	83.447457	-438.425752	-82.673567	79.312492	-41.052594	
253	1.2650	465.831736	1385.201654	-63.381748	465.476864	1373.426313	-361.438818	445.468614	1430.598458	-213.349139	394.936869	1293.885649	-211.622051	475.029865	1054.946971	50.493106	717.441790	916.535506	-47.734810	480.091654	1062.203694	-497.054182	724.389946	917.668330	-399.943341	-128.547003	1214.933875	-241.657380	43.153887	1250.818027	-373.937694	35.317833	1240.650260	-82.906481	68.755605	1168.834083	-349.126413	43.584506	1184.092988	-100.748434	-102.111719	1251.325475	-188.280461	-83.284423	1260.069919	-295.265727	-31.758786	1130.360572	-38.758595	-23.539961	1100.432035	-408.787892	107.727700	1074.765228	-39.193423	194.237913	1064.329401	-50.129500	265.030481	1016.475550	-47.782389	204.622893	1094.897472	-68.914917	388.155128	941.006527	-80.792351	384.023094	927.189684	-187.471695	335.395692	808.003276	-59.016020	319.664790	721.568105	-79.330771	267.953133	652.546287	-74.938063	336.085062	719.737603	-115.116440	206.141230	530.723488	-77.471640	137.239156	495.216437	-106.360822	422.905774	448.639683	-120.535284	343.040112	422.456621	-49.759235	32.069163	990.710890	-416.405759	98.898594	933.036338	-417.756157	128.595481	952.795352	-408.693057	127.830618	848.965527	-413.331043	211.524975	689.723166	-380.640048	196.707766	673.477749	-283.872196	123.254946	568.331150	-405.301900	90.914952	490.511503	-385.808217	23.886881	431.679607	-396.160878	92.905786	492.173281	-343.875065	-61.210666	325.065364	-396.514061	-138.169795	293.262781	-364.785273	145.523710	236.343519	-353.916161	64.340956	222.433363	-420.050447	-259.795075	973.138569	-233.297154	-75.742241	83.422781	-438.441590	-82.660006	79.314955	-41.054825	
254	1.2700	465.844762	1385.263546	-63.399420	465.485274	1373.421358	-361.426611	445.459717	1430.622326	-213.309189	394.917820	1293.868605	-211.605608	475.051515	1055.005932	50.468734	717.459912	916.528387	-47.726767	480.112490	1062.218495	-497.071791	724.388899	917.656243	-399.936789	-128.544981	1214.935818	-241.641080	43.193511	1250.833478	-373.976504	35.326274	1240.624898	-82.917782	68.773475	1168.833588	-349.121376	43.586736	1184.066339	-100.753156	-102.103938	1251.322330	-188.272843	-83.272061	1260.063018	-295.269224	-31.751442	1130.365299	-38.755568	-23.532496	1100.434067	-408.789332	107.735835	1074.748308	-39.198256	194.235355	1064.319362	-50.127992	265.049779	1016.458673	-47.772900	204.622694	1094.890399	-68.912827	388.185821	941.019283	-80.804762	384.035393	927.177472	-187.468579	335.422065	808.005473	-59.002069	319.721946	721.569388	-79.327475	267.993241	652.543770	-74.934025	336.105940	719.720588	-115.097643	206.194947	530.708999	-77.475851	137.281975	495.226406	-106.358238	422.948741	448.588918	-120.553606	343.064950	422.428857	-49.743722	32.083827	990.681302	-416.393551	98.899214	933.022260	-417.759224	128.598290	952.780470	-408.696772	127.846812	848.948202	-413.322716	211.539476	689.732352	-380.627324	196.724927	673.487268	-283.831128	123.268680	568.340744	-405.280019	90.915772	490.510677	-385.808259	23.873172	431.690675	-396.163549	92.871698	492.178005	-343.879120	-61.232748	325.100378	-396.535060	-138.187020	293.270309	-364.785670	145.246856	235.893444	-353.482782	64.317413	222.458668	-420.046251	-259.806566	973.130999	-233.303290	-75.759544	83.443227	-438.426001	-82.673816	79.310058	-41.045836	
